:SAMPLES-PER-SECOND 30
:FULLY-SPECIFIED
:DEGREES
245
root  -22.0714 33.8209 -29.2463 -68.8324 85.5543 -77.148
RightUpLeg  -23.8694 -14.628 7.79372
RightLeg  13.5618 -6.25375 -1.08531
RightFoot  9.84381 0.139421 -1.04625
RightToes  -17.9976 -0.0705798 -0.160531
Spine  -1.32458 -0.234802 0.414404
Spine1  -2.6579 -0.696141 1.35023
HEad  -66.8011 -15.3246 0.297923
LeftShoulder1  -1.94126e-019 -3.10601e-018 -2.51263e-017
LeftArm  -11.9848 15.0458 -71.7097
LeftForeArm  31.5251 -26.2966 -4.63554
LeftHand  -0.39602 -0.0409207 8.5349
RightShoulder  -4.96962e-017 0 -2.36833e-017
RightArm  -37.8407 -25.5821 73.3217
RightForeArm  63.03 9.4118 1.50548
RightHand  -0.295375 -0.736063 -7.32952
LeftUpLeg  -3.24594 1.1606 8.03788
LeftLeg  24.1123 16.3843 5.99492
LeftFoot  -6.79163 -0.132329 -2.06826
LeftToes  -25.7344 1.46665e-006 1.03344e-007
246
root  -21.1548 33.9398 -28.6751 -73.2867 84.4795 -81.0905
RightUpLeg  -21.4612 -14.2014 9.07018
RightLeg  13.2984 -6.5392 -1.10368
RightFoot  8.38257 0.107975 -0.900394
RightToes  -17.7687 -0.0693724 -0.158644
Spine  -1.40199 -0.263544 0.970574
Spine1  -2.81877 -0.649373 2.42297
HEad  -65.7723 -14.818 0.0884103
LeftShoulder1  -1.94126e-019 -3.10601e-018 -2.51263e-017
LeftArm  -13.0423 14.5282 -73.1221
LeftForeArm  32.6005 -28.0114 -5.00362
LeftHand  -0.404565 0.0023005 8.78438
RightShoulder  -4.96962e-017 0 -2.36833e-017
RightArm  -37.3002 -24.5634 73.7293
RightForeArm  61.2405 10.22 1.53784
RightHand  -0.302818 -1.15671 -8.21518
LeftUpLeg  -3.58864 1.39273 10.2367
LeftLeg  28.3128 15.8326 7.12596
LeftFoot  -3.27155 -0.0320484 -0.960644
LeftToes  -35.9126 1.46665e-006 1.03344e-007
247
root  -20.2768 34.0854 -28.1731 -78.6938 83.9937 -85.9764
RightUpLeg  -18.464 -15.9476 10.0666
RightLeg  11.3631 -5.24193 -0.704257
RightFoot  7.51219 0.0760728 -0.59485
RightToes  -17.1288 -0.0668364 -0.153346
Spine  -1.45214 -0.384415 1.30899
Spine1  -2.9066 -0.767773 3.10578
HEad  -64.7243 -14.5844 0.220925
LeftShoulder1  -1.94126e-019 -3.10601e-018 -2.51263e-017
LeftArm  -12.28 14.4884 -74.3692
LeftForeArm  31.2287 -30.0579 -5.38487
LeftHand  -0.394737 0.186438 8.8579
RightShoulder  -4.96962e-017 0 -2.36833e-017
RightArm  -34.9693 -23.5836 74.2883
RightForeArm  58.2352 11.7727 1.49493
RightHand  -0.281493 -1.33911 -7.94815
LeftUpLeg  -5.13303 1.89645 11.8445
LeftLeg  33.9547 15.0206 8.59744
LeftFoot  2.25193 -0.0122673 0.785719
LeftToes  -48.6826 1.46665e-006 1.03344e-007
248
root  -19.479 34.1649 -27.7095 -84.0176 83.7063 -90.8094
RightUpLeg  -15.5651 -17.3123 10.7223
RightLeg  9.26464 -4.57127 -0.444589
RightFoot  6.76056 0.0578163 -0.420416
RightToes  -16.6772 -0.0637202 -0.149584
Spine  -1.31148 -0.298983 1.49405
Spine1  -2.60229 -0.50729 3.4831
HEad  -64.439 -15.0772 0.839348
LeftShoulder1  -1.94126e-019 -3.10601e-018 -2.51263e-017
LeftArm  -9.67129 13.9691 -75.3704
LeftForeArm  28.9458 -32.4304 -5.79449
LeftHand  -0.366037 0.145754 8.1543
RightShoulder  -4.96962e-017 0 -2.36833e-017
RightArm  -30.4958 -22.5675 74.7854
RightForeArm  53.6415 14.1827 1.27019
RightHand  -0.257951 -0.968097 -6.69858
LeftUpLeg  -7.85105 2.86373 13.0439
LeftLeg  40.8658 14.2617 10.579
LeftFoot  8.04458 -0.177223 2.68149
LeftToes  -52.5405 1.46665e-006 1.03344e-007
249
root  -18.7354 34.1966 -27.2706 -85.9174 83.3553 -91.7861
RightUpLeg  -12.2553 -18.8167 11.2083
RightLeg  7.04326 -3.3515 -0.195194
RightFoot  6.23083 0.0427263 -0.23445
RightToes  -15.9784 -0.0601928 -0.143727
Spine  -0.831077 0.0670847 1.68077
Spine1  -1.61722 0.272762 3.84077
HEad  -65.103 -16.0045 1.86629
LeftShoulder1  -1.94126e-019 -3.10601e-018 -2.51263e-017
LeftArm  -7.02598 12.6867 -76.5787
LeftForeArm  28.8454 -34.2174 -6.03977
LeftHand  -0.381395 -0.0976476 8.141
RightShoulder  -4.96962e-017 0 -2.36833e-017
RightArm  -26.1534 -20.8834 74.7337
RightForeArm  50.4415 16.6228 1.20574
RightHand  -0.249206 -0.555874 -5.95965
LeftUpLeg  -10.624 4.61222 13.9265
LeftLeg  48.2441 14.0011 13.394
LeftFoot  11.399 -0.395186 4.11963
LeftToes  -40.0962 1.46665e-006 1.03344e-007
250
root  -18.0607 34.2348 -26.939 -82.7329 83.4296 -87.7946
RightUpLeg  -9.68649 -18.4584 11.0202
RightLeg  5.95088 -3.45461 -0.135281
RightFoot  5.52755 0.0355724 -0.187522
RightToes  -15.216 -0.056074 -0.137289
Spine  -0.344912 0.464641 1.77526
Spine1  -0.62185 1.09481 4.03867
HEad  -65.33 -16.4952 2.49978
LeftShoulder1  -1.94126e-019 -3.10601e-018 -2.51263e-017
LeftArm  -5.69353 11.8854 -77.9634
LeftForeArm  31.3007 -35.6788 -6.21077
LeftHand  -0.382562 -1.19876 6.88785
RightShoulder  -4.96962e-017 0 -2.36833e-017
RightArm  -23.7482 -18.232 74.3364
RightForeArm  49.9816 18.1711 1.46113
RightHand  -0.262634 -0.456167 -6.16776
LeftUpLeg  -12.9015 6.23441 13.6769
LeftLeg  53.2221 14.2519 16.0917
LeftFoot  10.6475 -0.388173 4.32539
LeftToes  -29.6039 1.46665e-006 1.03344e-007
